<?xml version="1.0" encoding="UTF-8"?>
<svg width="303px" height="276px" viewBox="0 0 303 276" version="1.1" xmlns="http://www.w3.org/2000/svg" xmlns:xlink="http://www.w3.org/1999/xlink">
    <!-- Generator: Sketch 55.2 (78181) - https://sketchapp.com -->
    <title>undraw_connecting_teams3_1pgn</title>
    <desc>Created with Sketch.</desc>
    <defs>
        <linearGradient x1="50%" y1="100%" x2="50%" y2="0.00661988614%" id="linearGradient-1">
            <stop stop-color="#808080" stop-opacity="0.25" offset="0%"></stop>
            <stop stop-color="#808080" stop-opacity="0.12" offset="54%"></stop>
            <stop stop-color="#808080" stop-opacity="0.1" offset="100%"></stop>
        </linearGradient>
        <linearGradient x1="50%" y1="99.9933801%" x2="50%" y2="0%" id="linearGradient-2">
            <stop stop-color="#808080" stop-opacity="0.25" offset="0%"></stop>
            <stop stop-color="#808080" stop-opacity="0.12" offset="54%"></stop>
            <stop stop-color="#808080" stop-opacity="0.1" offset="100%"></stop>
        </linearGradient>
        <linearGradient x1="50%" y1="99.9933801%" x2="50%" y2="0%" id="linearGradient-3">
            <stop stop-color="#808080" stop-opacity="0.25" offset="0%"></stop>
            <stop stop-color="#808080" stop-opacity="0.12" offset="54%"></stop>
            <stop stop-color="#808080" stop-opacity="0.1" offset="100%"></stop>
        </linearGradient>
        <linearGradient x1="50%" y1="100%" x2="50%" y2="0%" id="linearGradient-4">
            <stop stop-color="#808080" stop-opacity="0.25" offset="0%"></stop>
            <stop stop-color="#808080" stop-opacity="0.12" offset="54%"></stop>
            <stop stop-color="#808080" stop-opacity="0.1" offset="100%"></stop>
        </linearGradient>
        <linearGradient x1="50%" y1="100%" x2="50%" y2="0%" id="linearGradient-5">
            <stop stop-color="#808080" stop-opacity="0.25" offset="0%"></stop>
            <stop stop-color="#808080" stop-opacity="0.12" offset="54%"></stop>
            <stop stop-color="#808080" stop-opacity="0.1" offset="100%"></stop>
        </linearGradient>
        <linearGradient x1="49.9526257%" y1="100.011067%" x2="49.9526257%" y2="0.000593432976%" id="linearGradient-6">
            <stop stop-color="#808080" stop-opacity="0.25" offset="0%"></stop>
            <stop stop-color="#808080" stop-opacity="0.12" offset="54%"></stop>
            <stop stop-color="#808080" stop-opacity="0.1" offset="100%"></stop>
        </linearGradient>
        <linearGradient x1="50.0013912%" y1="100%" x2="50.0013912%" y2="-0.00293506612%" id="linearGradient-7">
            <stop stop-color="#808080" stop-opacity="0.25" offset="0%"></stop>
            <stop stop-color="#808080" stop-opacity="0.12" offset="54%"></stop>
            <stop stop-color="#808080" stop-opacity="0.1" offset="100%"></stop>
        </linearGradient>
    </defs>
    <g id="Welcome" stroke="none" stroke-width="1" fill="none" fill-rule="evenodd">
        <g id="Desktop" transform="translate(-95.000000, -91.000000)" fill-rule="nonzero">
            <g id="undraw_connecting_teams3_1pgn" transform="translate(95.000000, 91.000000)">
                <g id="Group" opacity="0.5" transform="translate(117.000000, 11.000000)" fill="url(#linearGradient-1)">
                    <circle id="Oval" cx="28.0221053" cy="28.07" r="27.8268421"></circle>
                </g>
                <circle id="Oval" cx="145" cy="39" r="27"></circle>
                <path d="M159,41.8976979 C159,50.6765973 152.406716,55 143.847015,55 C135.287313,55 128,50.6801674 128,41.8976979 C128,33.1152284 134.940299,26 143.5,26 C152.059701,26 159,33.1152284 159,41.8976979 Z" id="Path" fill="#333333"></path>
                <path d="M143.839471,67 C149.228688,67.0092536 154.501297,65.3436758 159,62.2108625 C157.981588,56.3465795 154.116847,56 154.116847,56 L132.789892,56 C132.789892,56 129.141516,56.3150723 128,61.7106853 C132.635677,65.1585539 138.168933,67.0062746 143.839471,67 L143.839471,67 Z" id="Path" fill="#49893E"></path>
                <path d="M141,49 L149,49 L149,56.0039828 C149,57.0682729 148.598637,58.0885989 147.884843,58.8387307 C147.171049,59.5888625 146.203829,60.0068141 145.197639,60 L144.749891,60 C142.674365,59.9836538 141,58.1993679 141,56.0039828 L141,49 Z" id="Path" fill="#000000" opacity="0.1"></path>
                <path d="M141.701522,49 L148.277517,49 C148.676533,49 149,49.3404439 149,49.7604027 L149,56.0134228 C149,57.0707288 148.600932,58.0847303 147.890587,58.8323586 C147.180242,59.5799868 146.216807,60 145.212227,60 L144.763306,60 C142.68097,59.9857947 141,58.2050972 141.000083,56.0134228 L141.000083,49.7714765 C140.994163,49.3557256 141.306626,49.0120639 141.701522,49 Z" id="Path" fill="#FDA57D"></path>
                <path d="M141,52.1385705 C143.578411,53.2785338 146.416571,53.2873469 149,52.1634121 L149,51 L141,51 L141,52.1385705 Z" id="Path" fill="#000000" opacity="0.1"></path>
                <circle id="Oval" fill="#FDA57D" cx="143.5" cy="41.5" r="12.5"></circle>
                <path d="M130,42 C130,42 137.705348,41.0866078 143.541933,33.7646789 C143.541933,33.7646789 151.247281,42.0739589 156.61573,41.1605667 C156.61573,41.1605667 159.730337,37.9581473 156.61573,34.7557278 C153.501124,31.5533084 151.088719,27.5151536 146.966112,28.0476575 C142.843506,28.5801615 137.780854,28.809434 135.602517,30.717573 C133.42418,32.6257121 130,42 130,42 Z" id="Path" fill="#000000" opacity="0.1"></path>
                <path d="M130,42 C130,42 137.705348,41.0866078 143.541933,33.7646789 C143.541933,33.7646789 151.247281,42.0739589 156.61573,41.1605667 C156.61573,41.1605667 159.730337,37.9581473 156.61573,34.7557278 C153.501124,31.5533084 151.088719,27.5151536 146.966112,28.0476575 C142.843506,28.5801615 137.780854,28.809434 135.602517,30.717573 C133.42418,32.6257121 130,42 130,42 Z" id="Path" fill="#333333"></path>
                <ellipse id="Oval" fill="#FDA57D" cx="132" cy="40.5" rx="1" ry="2.5"></ellipse>
                <ellipse id="Oval" fill="#FDA57D" cx="157" cy="40.5" rx="1" ry="2.5"></ellipse>
                <g id="Group" opacity="0.5" transform="translate(235.000000, 14.000000)" fill="url(#linearGradient-2)">
                    <circle id="Oval" cx="27.9668421" cy="27.8452632" r="27.8268421"></circle>
                </g>
                <circle id="Oval" cx="264" cy="41" r="27"></circle>
                <path d="M262.844942,68 C268.232215,68.0092419 273.50292,66.3418764 278,63.2057007 C276.985685,57.3351236 273.118609,57 273.118609,57 L251.788163,57 C251.788163,57 248.141104,57.3154105 247,62.7168145 C251.638444,66.1665161 257.173845,68.0121661 262.844942,68 Z" id="Path" fill="#E5544C"></path>
                <circle id="Oval" fill="#72351C" cx="262" cy="41" r="13"></circle>
                <path d="M258.003497,51 L266,51 L266,58.0016812 C266.000926,59.061761 265.603485,60.0787588 264.895205,60.8286955 C264.186925,61.5786322 263.225898,62 262.223775,62 L261.776223,62 C259.690673,62 258,60.2115477 258,58.00538 L258,51 L258.003497,51 Z" id="Path" fill="#000000" opacity="0.1"></path>
                <path d="M258.723776,51 L265.27972,51 C265.67752,51 266,51.3412455 266,51.7621931 L266,58.0040363 C266,59.0638318 265.602149,60.0802208 264.89397,60.8296093 C264.18579,61.5789979 263.225293,62 262.223776,62 L261.776224,62 C260.774707,62 259.81421,61.5789979 259.10603,60.8296093 C258.397851,60.0802208 258,59.0638318 258,58.0040363 L258,51.7621931 C258,51.3412455 258.32248,51 258.72028,51 L258.723776,51 Z" id="Path" fill="#FDA57D"></path>
                <path d="M258,55.1385705 C260.578411,56.2785338 263.416571,56.2873469 266,55.1634121 L266,54 L258,54 L258,55.1385705 Z" id="Path" fill="#000000" opacity="0.1"></path>
                <circle id="Oval" fill="#FDA57D" cx="262.5" cy="43.5" r="12.5"></circle>
                <path d="M254,32.9591495 C254,32.9591495 259.233043,43.0145121 274,37.1788106 L270.563092,32.0721229 L264.469875,30 L254,32.9591495 Z" id="Path" fill="#000000" opacity="0.1"></path>
                <path d="M254,32.9494924 C254,32.9494924 259.233043,43.0209298 274,37.1758992 L270.563092,32.0754355 L264.469875,30 L254,32.9494924 Z" id="Path" fill="#72351C"></path>
                <path d="M253.269606,31.0143239 C253.636343,29.9937225 254.270227,29.0670781 255.11804,28.31219 C257.660129,26.05628 261.81812,25.5781829 263.962145,23 C264.200024,23.3684078 264.252595,23.8102587 264.106766,24.2155278 C263.960938,24.6207968 263.630432,24.9513498 263.197548,25.124876 C265.243043,25.124876 267.615659,24.9513444 268.774379,23.439141 C269.358866,24.6607436 269.10717,26.0756632 268.128018,27.072679 C269.940981,27.1470496 271.880063,28.2519851 271.994358,29.8810567 C272.073183,30.9647435 271.316468,32.0059327 270.32328,32.6150638 C269.292361,33.1894608 268.146227,33.5768691 266.949592,33.7554139 C263.497081,34.4389157 251.019168,37.3039568 253.269606,31.0143239 Z" id="Path" fill="#72351C"></path>
                <path d="M275,43 L274.668142,43 L268.221697,48.4876132 C262.007934,45.6962473 257.449649,48.4876132 257.449649,48.4876132 L250.682789,43.2268213 L250,43.3073063 C250.168982,49.8709287 255.811282,55.08315 262.65641,54.9989952 C269.501538,54.9148403 275.00268,49.56562 274.996186,43 L275,43 Z M262.480928,50.6168071 C260.047299,50.6168071 258.079036,50.1448724 258.079036,49.559527 C258.079036,48.9741816 260.051114,48.5022468 262.480928,48.5022468 C264.910742,48.5022468 266.88282,48.9741816 266.88282,49.559527 C266.88282,50.1448724 264.910742,50.6168071 262.480928,50.6168071 L262.480928,50.6168071 Z" id="Shape" fill="#72351C"></path>
                <ellipse id="Oval" fill="#FDA57D" cx="251" cy="42.5" rx="1" ry="2.5"></ellipse>
                <ellipse id="Oval" fill="#FDA57D" cx="274" cy="42.5" rx="1" ry="2.5"></ellipse>
                <g id="Group" opacity="0.5" transform="translate(176.000000, 59.000000)" fill="url(#linearGradient-3)">
                    <ellipse id="Oval" cx="28" cy="28.4962745" rx="27.8268421" ry="28.1386275"></ellipse>
                </g>
                <circle id="Oval" cx="203" cy="87" r="27"></circle>
                <path d="M193.850746,88 C193.850746,88 190.723881,102.766407 189,101.944065 C189,101.944065 205.462687,115.569919 220,101.944065 C220,101.944065 217.440299,91.5396472 213.742537,88 L193.850746,88 Z" id="Path" fill="#333333"></path>
                <path d="M204.837646,114 C210.227512,114.009264 215.500755,112.341895 220,109.205713 C218.985197,103.335124 215.116259,103 215.116259,103 L193.790468,103 C193.790468,103 190.141654,103.315411 189,108.716826 C193.636514,112.163427 199.168911,114.008929 204.837646,114 Z" id="Path" fill="#4299EA"></path>
                <circle id="Oval" fill="#333333" cx="204.5" cy="86.5" r="12.5"></circle>
                <path d="M199.003497,97 L207,97 L207,104.004036 C207,106.208059 205.313589,107.995918 203.230769,108 L202.776224,108 C200.690673,108 199,106.210946 199,104.004036 L199,97 L199.003497,97 Z" id="Path" fill="#000000" opacity="0.1"></path>
                <path d="M199.733304,97 L206.280663,97 C206.677942,97 207,97.3418203 207,97.763477 L207,104.015834 C206.990383,106.220668 205.302612,108.002063 203.225229,108 L202.771279,108 C200.688459,108 199,106.207931 199,103.997303 L199,97.763477 C199,97.3418203 199.322058,97 199.719337,97 L199.733304,97 Z" id="Path" fill="#BE7C5E"></path>
                <path d="M199,100.138571 C201.578411,101.278534 204.416571,101.287347 207,100.163412 L207,99 L199,99 L199,100.138571 Z" id="Path" fill="#000000" opacity="0.1"></path>
                <circle id="Oval" fill="#BE7C5E" cx="204.5" cy="89.5" r="12.5"></circle>
                <path d="M192,85 L215,85 C215,85 213.03488,75.4167563 204.328,76.0280488 C195.62112,76.6393413 192,85 192,85 Z" id="Path" fill="#333333"></path>
                <ellipse id="Oval" fill="#BE7C5E" cx="192" cy="88.5" rx="1" ry="2.5"></ellipse>
                <ellipse id="Oval" fill="#BE7C5E" cx="216" cy="88.5" rx="1" ry="2.5"></ellipse>
                <path d="M192,85 L215,85 C215,85 213.03488,75.4167563 204.328,76.0280488 C195.62112,76.6393413 192,85 192,85 Z" id="Path" fill="#000000" opacity="0.1"></path>
                <path d="M203.5,62.2383504 C217.451624,62.2383504 228.76165,73.5483762 228.76165,87.5 C228.76165,101.451624 217.451624,112.76165 203.5,112.76165 C189.548376,112.76165 178.23835,101.451624 178.23835,87.5 C178.23835,73.5483762 189.548376,62.2383504 203.5,62.2383504 L203.5,62.2383504 Z M203.5,56 C186.10303,56 172,70.1030304 172,87.5 C172,104.89697 186.10303,119 203.5,119 C220.89697,119 235,104.89697 235,87.5 C234.979778,70.1114134 220.888587,56.0202217 203.5,56 L203.5,56 Z" id="Shape" fill="#CFCCC9"></path>
                <rect id="Rectangle" fill="#CFCCC9" x="199" y="48" width="8" height="8"></rect>
                <polygon id="Rectangle" fill="#CFCCC9" transform="translate(221.038996, 56.340007) rotate(-59.000000) translate(-221.038996, -56.340007) " points="217.122262 52.6174679 224.952597 52.6207661 224.95573 60.0625465 217.125395 60.0592483"></polygon>
                <polygon id="Rectangle" fill="#CFCCC9" transform="translate(234.100933, 69.037422) rotate(-29.000000) translate(-234.100933, -69.037422) " points="230.182394 65.3167211 238.016462 65.3198889 238.019471 72.758123 230.185403 72.7549552"></polygon>
                <polygon id="Rectangle" fill="#CFCCC9" transform="translate(234.276355, 104.746355) rotate(-58.000000) translate(-234.276355, -104.746355) " points="230.555397 100.827897 237.993956 100.831086 237.997314 108.664813 230.558755 108.661623"></polygon>
                <polygon id="Rectangle" fill="#CFCCC9" transform="translate(173.594153, 69.038816) rotate(-61.000000) translate(-173.594153, -69.038816) " points="169.873452 65.1202775 177.311686 65.1232868 177.314854 72.957355 169.87662 72.9543457"></polygon>
                <polygon id="Rectangle" fill="#CFCCC9" transform="translate(173.425026, 104.747642) rotate(-32.000000) translate(-173.425026, -104.747642) " points="169.506568 101.026684 177.340294 101.030041 177.343484 108.4686 169.509757 108.465243"></polygon>
                <polygon id="Rectangle" fill="#CFCCC9" transform="translate(186.654905, 56.337762) rotate(-31.000000) translate(-186.654905, -56.337762) " points="182.932365 52.4210279 190.374146 52.424161 190.377444 60.254496 182.935664 60.2513629"></polygon>
                <rect id="Rectangle" fill="#CFCCC9" x="199" y="119" width="8" height="8"></rect>
                <polygon id="Rectangle" fill="#CFCCC9" transform="translate(221.039238, 117.740702) rotate(-31.000000) translate(-221.039238, -117.740702) " points="217.316699 113.823968 224.758479 113.827101 224.761778 121.657436 217.319997 121.654303"></polygon>
                <polygon id="Rectangle" fill="#CFCCC9" transform="translate(188.346206, 117.733702) rotate(-58.840695) translate(-188.346206, -117.733702) " points="184.409923 113.9926 192.279331 113.995925 192.282489 121.474804 184.413081 121.47148"></polygon>
                <rect id="Rectangle" fill="#CFCCC9" x="164" y="84" width="9" height="6"></rect>
                <rect id="Rectangle" fill="#CFCCC9" transform="translate(239.500000, 87.000000) rotate(-180.000000) translate(-239.500000, -87.000000) " x="235" y="84" width="9" height="6"></rect>
                <path d="M263.5,15.2383504 C277.451624,15.2383504 288.76165,26.5483762 288.76165,40.5 C288.76165,54.4516238 277.451624,65.7616496 263.5,65.7616496 C249.548376,65.7616496 238.23835,54.4516238 238.23835,40.5 C238.23835,26.5483762 249.548376,15.2383504 263.5,15.2383504 L263.5,15.2383504 Z M263.5,9 C246.10303,9 232,23.1030304 232,40.5 C232,57.8969696 246.10303,72 263.5,72 C280.89697,72 295,57.8969696 295,40.5 C294.979778,23.1114134 280.888587,9.02022166 263.5,9 L263.5,9 Z" id="Shape" fill="#CFCCC9"></path>
                <rect id="Rectangle" fill="#CFCCC9" x="258" y="1" width="8" height="8"></rect>
                <polygon id="Rectangle" fill="#CFCCC9" transform="translate(280.201055, 10.539128) rotate(-59.000000) translate(-280.201055, -10.539128) " points="276.284321 6.81658831 284.114656 6.81988652 284.117789 14.2616669 276.287454 14.2583687"></polygon>
                <polygon id="Rectangle" fill="#CFCCC9" transform="translate(293.265945, 23.240396) rotate(-29.000000) translate(-293.265945, -23.240396) " points="289.347406 19.5196953 297.181475 19.5228631 297.184484 26.9610972 289.350416 26.9579293"></polygon>
                <polygon id="Rectangle" fill="#CFCCC9" transform="translate(293.436365, 58.950242) rotate(-58.000000) translate(-293.436365, -58.950242) " points="289.715407 55.0317838 297.153966 55.0349732 297.157324 62.8686994 289.718765 62.86551"></polygon>
                <polygon id="Rectangle" fill="#CFCCC9" transform="translate(232.761147, 23.239644) rotate(-61.000000) translate(-232.761147, -23.239644) " points="229.040446 19.3211052 236.47868 19.3241145 236.481848 27.1581827 229.043614 27.1551734"></polygon>
                <polygon id="Rectangle" fill="#CFCCC9" transform="translate(232.585526, 58.948807) rotate(-32.000000) translate(-232.585526, -58.948807) " points="228.667068 55.2278492 236.500795 55.2312066 236.503984 62.6697656 228.670258 62.6664082"></polygon>
                <polygon id="Rectangle" fill="#CFCCC9" transform="translate(245.819383, 10.536910) rotate(-31.000000) translate(-245.819383, -10.536910) " points="242.096843 6.62017546 249.538624 6.6233086 249.541922 14.4536436 242.100142 14.4505105"></polygon>
                <rect id="Rectangle" fill="#CFCCC9" x="258" y="73" width="8" height="8"></rect>
                <polygon id="Rectangle" fill="#CFCCC9" transform="translate(280.203716, 71.943546) rotate(-31.000000) translate(-280.203716, -71.943546) " points="276.481177 68.0268118 283.922958 68.0299449 283.926256 75.8602799 276.484475 75.8571468"></polygon>
                <polygon id="Rectangle" fill="#CFCCC9" transform="translate(247.671978, 71.538139) rotate(-58.840695) translate(-247.671978, -71.538139) " points="243.735695 67.7970368 251.605103 67.8003612 251.608261 75.2792405 243.738853 75.2759161"></polygon>
                <rect id="Rectangle" fill="#CFCCC9" x="223" y="39" width="9" height="6"></rect>
                <rect id="Rectangle" fill="#CFCCC9" transform="translate(298.500000, 42.000000) rotate(-180.000000) translate(-298.500000, -42.000000) " x="294" y="39" width="9" height="6"></rect>
                <path d="M144.533027,14.2383504 C144.829351,14.2383504 145.126898,14.2383504 145.425671,14.2383504 C159.215988,14.708176 170.083497,26.1345573 169.847945,39.9165641 C169.612393,53.6985709 158.360749,64.7476922 144.562415,64.7469711 C144.266091,64.7469711 143.968543,64.7469711 143.669771,64.7469711 C129.879454,64.2771455 119.011945,52.8507642 119.247497,39.0687574 C119.483049,25.2867506 130.734693,14.2376293 144.533027,14.2383504 L144.533027,14.2383504 Z M144.533027,8 L144.533027,8 C127.327737,8 113.298364,21.7773912 113.004685,38.9623227 C112.711005,56.1472542 126.261444,70.3951047 143.456712,70.9816519 C143.824055,70.9816519 144.191398,71 144.558741,71 C161.726817,70.9502037 175.700189,57.1893089 175.995251,40.0415107 C176.290313,22.8937125 162.798623,8.66120679 145.642403,8.02201771 C145.27506,8.02201771 144.907717,8.00366962 144.540374,8.00366962 L144.533027,8 Z" id="Shape" fill="#CFCCC9"></path>
                <polygon id="Rectangle" fill="#CFCCC9" transform="translate(144.935940, 4.041726) rotate(-88.010000) translate(-144.935940, -4.041726) " points="141.021636 0.319768925 148.849998 0.320028196 148.850245 7.76368264 141.021882 7.76342337"></polygon>
                <polygon id="Rectangle" fill="#CFCCC9" transform="translate(162.936551, 9.200177) rotate(-57.010000) translate(-162.936551, -9.200177) " points="159.019646 5.47769175 166.850215 5.48110372 166.853456 12.9226627 159.022888 12.9192507"></polygon>
                <polygon id="Rectangle" fill="#CFCCC9" transform="translate(175.547076, 22.350327) rotate(-27.010000) translate(-175.547076, -22.350327) " points="171.628499 18.629801 179.462782 18.6328238 179.465653 26.0708536 171.63137 26.0678307"></polygon>
                <polygon id="Rectangle" fill="#CFCCC9" transform="translate(174.483647, 58.042475) rotate(-56.010000) translate(-174.483647, -58.042475) " points="170.762523 54.1240859 178.201307 54.1273756 178.20477 61.9608648 170.765986 61.9575752"></polygon>
                <polygon id="Rectangle" fill="#CFCCC9" transform="translate(115.076688, 20.248229) rotate(-59.010000) translate(-115.076688, -20.248229) " points="111.355816 16.3297409 118.794263 16.3328734 118.797561 24.166717 111.359113 24.1635845"></polygon>
                <polygon id="Rectangle" fill="#CFCCC9" transform="translate(114.395449, 56.300829) rotate(-29.886527) translate(-114.395449, -56.300829) " points="110.463435 52.5672368 118.324385 52.5704755 118.327462 60.0344217 110.466512 60.031183"></polygon>
                <polygon id="Rectangle" fill="#CFCCC9" transform="translate(128.573389, 8.012647) rotate(-29.010000) translate(-128.573389, -8.012647) " points="124.850808 4.09608661 132.292802 4.09909656 132.29597 11.9292069 124.853976 11.926197"></polygon>
                <polygon id="Rectangle" fill="#CFCCC9" transform="translate(142.488842, 74.460622) rotate(-88.010000) translate(-142.488842, -74.460622) " points="138.574538 70.7386651 146.4029 70.7389244 146.403146 78.1825789 138.574784 78.1823196"></polygon>
                <polygon id="Rectangle" fill="#CFCCC9" transform="translate(160.800661, 70.571150) rotate(-29.010000) translate(-160.800661, -70.571150) " points="157.07808 66.6545902 164.520074 66.6576001 164.523242 74.4877105 157.081248 74.4847005"></polygon>
                <polygon id="Rectangle" fill="#CFCCC9" transform="translate(126.440511, 69.372509) rotate(-57.010000) translate(-126.440511, -69.372509) " points="122.523606 65.6500238 130.354174 65.6534357 130.357415 73.0949947 122.526847 73.0915827"></polygon>
                <polygon id="Rectangle" fill="#CFCCC9" transform="translate(109.235120, 38.251669) rotate(1.990000) translate(-109.235120, -38.251669) " points="104.729082 34.9253189 113.741379 34.9250207 113.741159 41.5780198 104.728861 41.578318"></polygon>
                <polygon id="Rectangle" fill="#CFCCC9" transform="translate(180.115751, 40.697676) rotate(-178.010000) translate(-180.115751, -40.697676) " points="175.609713 37.3713251 184.62201 37.3710269 184.62179 44.024026 175.609492 44.0243242"></polygon>
                <g id="Group" opacity="0.5" transform="translate(0.000000, 113.000000)" fill="url(#linearGradient-4)">
                    <ellipse id="Oval" cx="24.3976119" cy="24.4455556" rx="24.3976119" ry="24.2168889"></ellipse>
                </g>
                <circle id="Oval" fill="#E6E6E6" cx="24" cy="137" r="24"></circle>
                <path d="M25.3070426,162 C30.1745276,162.007909 34.9367745,160.643581 39,158.077087 C38.0807792,153.273944 34.5869773,153 34.5869773,153 L15.3252963,153 C15.3252963,153 12.0298324,153.259333 11,157.678956 C15.1886096,160.499605 20.1864911,162.009061 25.3070426,162 Z" id="Path" fill="#CCCCCC"></path>
                <circle id="Oval" fill="#CCCCCC" cx="23.5" cy="136.5" r="11.5"></circle>
                <path d="M20,147 L28,147 L28,152.73037 C28,154.536121 26.3084343,156 24.2217822,156 L23.7940594,156 C22.7892718,156.003617 21.8241926,155.660752 21.1122093,155.047188 C20.4002261,154.433623 20,153.599903 20,152.73037 L20,147 Z" id="Path" fill="#000000" opacity="0.1"></path>
                <path d="M20.2567901,147 L27.762963,147 C27.8938749,147 28,147.092066 28,147.205635 L28,152.73037 C28,154.536121 26.312611,156 24.2311111,156 L23.7846914,156 C22.7823847,156.003617 21.8196884,155.660752 21.1094631,155.047188 C20.3992379,154.433623 20,153.599903 20,152.73037 L20,147.205635 C20,147.092066 20.1061251,147 20.237037,147 L20.2567901,147 Z" id="Path" fill="#CCCCCC"></path>
                <path d="M20,149.137879 C22.5780926,150.277627 25.4162264,150.287595 28,149.165975 L28,148 L20,148 L20,149.137879 Z" id="Path" fill="#000000" opacity="0.1"></path>
                <circle id="Oval" fill="#CCCCCC" cx="25" cy="139" r="11"></circle>
                <path d="M17,129.631291 C17,129.631291 21.4487344,138.571904 34,133.377902 L31.0827971,128.840821 L25.9011154,127 L17,129.631291 Z" id="Path" fill="#000000" opacity="0.1"></path>
                <path d="M17,129.631291 C17,129.631291 21.4487344,138.571904 34,133.377902 L31.0827971,128.840821 L25.9011154,127 L17,129.631291 Z" id="Path" fill="#CCCCCC"></path>
                <path d="M17.2095162,129.346382 C17.4999159,128.410152 18.0012902,127.560299 18.6715459,126.868173 C20.6796349,124.798097 23.9559907,124.360549 25.654059,122 C25.8399904,122.337972 25.8801994,122.742281 25.7647386,123.112904 C25.6492778,123.483526 25.3889323,123.785843 25.0481093,123.945063 C26.6616265,123.945063 28.5393659,123.786958 29.4518134,122.397102 C29.9124895,123.517263 29.7136123,124.814189 28.9409837,125.728344 C30.3748297,125.794528 31.9037958,126.809343 31.9953928,128.302152 C32.0588061,129.298583 31.4599024,130.239861 30.6742816,130.809776 C29.8605725,131.337234 28.9557522,131.693238 28.0109214,131.857683 C25.2947168,132.486428 15.4480345,135.111712 17.2095162,129.346382 Z" id="Path" fill="#CCCCCC"></path>
                <ellipse id="Oval" fill="#CCCCCC" cx="13" cy="139.5" rx="1" ry="1.5"></ellipse>
                <ellipse id="Oval" fill="#CCCCCC" cx="35" cy="139.5" rx="1" ry="1.5"></ellipse>
                <g id="Group" opacity="0.5" transform="translate(5.000000, 111.000000)" fill="url(#linearGradient-5)">
                    <ellipse id="Oval" cx="24.431037" cy="24.5" rx="24.2168889" ry="24.3976119"></ellipse>
                </g>
                <circle id="Oval" fill="#F5F5F5" cx="29" cy="135" r="24"></circle>
                <path d="M28.3070426,159 C33.1745276,159.007909 37.9367745,157.643581 42,155.077087 C41.0807792,150.273944 37.5869773,150 37.5869773,150 L18.3252963,150 C18.3252963,150 15.0298324,150.259333 14,154.678956 C18.1886096,157.499605 23.1864911,159.009061 28.3070426,159 L28.3070426,159 Z" id="Path" fill="#CCCCCC"></path>
                <circle id="Oval" fill="#CCCCCC" cx="28.5" cy="135.5" r="11.5"></circle>
                <path d="M25,145 L33,145 L33,150.730388 C33,152.536145 31.3084343,154 29.2217822,154 L28.7782178,154 C26.6915657,154 25,152.536145 25,150.730388 L25,145 Z" id="Path" fill="#000000" opacity="0.1"></path>
                <path d="M25.2414962,144 L32.7624626,144 C32.8936325,144 33,144.091955 33,144.205352 L33,149.721684 C33.0041776,150.589886 32.6081765,151.423778 31.8995228,152.038978 C31.1908691,152.654178 30.2279408,153 29.22365,153 L28.7763504,153 C26.6907482,153 25,151.538376 25,149.735372 L25,144.208774 C24.9989516,144.15313 25.0240437,144.099489 25.0695634,144.060138 C25.1150831,144.020786 25.1771307,143.999094 25.2414962,144 Z" id="Path" fill="#CCCCCC"></path>
                <path d="M25,148.135856 C27.5780926,149.278279 30.4162264,149.28827 33,148.164018 L33,147 L25,147 L25,148.135856 Z" id="Path" fill="#000000" opacity="0.1"></path>
                <circle id="Oval" fill="#CCCCCC" cx="28" cy="138" r="11"></circle>
                <path d="M22,127.631291 C22,127.631291 26.4487344,136.571904 39,131.377902 L36.0827971,126.840821 L30.9011154,125 L22,127.631291 Z" id="Path" fill="#000000" opacity="0.1"></path>
                <path d="M22,127.631291 C22,127.631291 26.4487344,136.571904 39,131.377902 L36.0827971,126.840821 L30.9011154,125 L22,127.631291 Z" id="Path" fill="#CCCCCC"></path>
                <path d="M20.2132259,126.346382 C20.5035528,125.410152 21.0048013,124.560299 21.6748889,123.868173 C23.6824743,121.798097 26.9580083,121.360549 28.6556507,119 C28.8415354,119.337972 28.8817343,119.742281 28.7663025,120.112904 C28.6508707,120.483526 28.3905905,120.785843 28.049853,120.945063 C29.6629655,120.945063 31.5402339,120.786958 32.4524525,119.397102 C32.913013,120.517263 32.7141857,121.814189 31.941751,122.728344 C33.3752373,122.794528 34.9038199,123.809343 34.995394,125.302152 C35.0587914,126.298583 34.4600379,127.239861 33.6746141,127.809776 C32.8611091,128.337234 31.9565158,128.693238 31.0119219,128.857683 C28.2893544,129.486428 18.4345757,132.111712 20.2132259,126.346382 Z" id="Path" fill="#CCCCCC"></path>
                <ellipse id="Oval" fill="#CCCCCC" cx="18" cy="137.5" rx="1" ry="1.5"></ellipse>
                <ellipse id="Oval" fill="#CCCCCC" cx="39" cy="137.5" rx="1" ry="1.5"></ellipse>
                <path d="M119.53235,50.1692784 L119.53235,51.3733439 L116.258394,51.0723275 L116.258394,58.5977366 L107.691544,71.5828299 L107.164073,71.2630001 L106,72.7680819 L117.069608,80 L117.069608,77.28709 L116.447556,76.9108196 C117.222392,73.9194695 120.394491,61.9916961 122.20608,60.4151229 C122.20608,60.4151229 125.480036,58.0032293 127.247972,54.6882866 C129.015908,51.3733439 128.128302,39.9234339 119.53235,50.1692784 Z" id="Path" fill="url(#linearGradient-6)"></path>
                <path d="M101.852017,77.9819897 C101.852017,77.9819897 89.7321444,75.4380903 83.081448,72.757581 C79.9778998,71.4985871 76.6747709,70.7948575 73.3246161,70.678894 L66.0534357,70.4425957 L62.4308496,68.2826812 L63.5454915,65.37695 C63.6569557,65.3289519 63.7684199,65.2772616 63.879884,65.2144949 L63.9839173,64.5905196 C64.5647454,64.4479595 65.1377048,64.2754248 65.7004658,64.073617 C65.5326247,65.5013546 66.0663603,66.9221318 67.1346383,67.891312 C67.9783956,68.8238263 69.1831929,69.3532447 70.4451246,69.3460237 L70.4451246,69.3460237 C71.6948922,69.3503441 72.8891081,68.8332176 73.7368057,67.9206403 C74.5845033,67.008063 75.0078476,65.7838271 74.9036921,64.5462136 L74.3835259,58.0258563 L74.1197273,58.1624663 L74.0862881,57.7267912 L73.9896858,57.7784815 C78.1079028,51.9775014 78.224427,44.2604018 74.2832081,38.3392507 L74.5655841,38.0807994 L74.5655841,30.8995451 C74.4689818,30.807241 74.368664,30.7223213 74.2683463,30.6374016 L74.2683463,30.6041722 C68.271573,25.0659298 60.0306541,25.5016048 54.0710356,26.9120106 C49.5436169,27.9772539 46.1880146,31.7693407 45.7037906,36.3676364 C37.7489632,38.5238588 40.4055263,42.6701562 40.2792002,44.2725544 C39.6624317,52.0814761 42.1926688,56.6745251 44.9421187,59.3328815 C46.0849503,60.5023688 47.420744,61.4688951 48.8916664,62.1906146 L47.1491096,65.65017 L46.6400898,65.6317092 L45.2467875,69.7595458 L45.179909,69.7595458 L27.9215374,81.3750862 L15.9985849,94.4453382 C14.9391722,95.6073797 14.6989629,97.2935149 15.3921585,98.7021124 C16.0853542,100.11071 17.5721123,100.957605 19.1455904,100.840162 L31.3434879,99.924506 C31.3434879,99.924506 39.970816,116.701688 37.2882445,133.478871 C36.3891001,139.116801 36.7643629,142.56528 37.6597918,144.66612 C37.4110735,146.938008 36.7832347,149.152852 35.8020554,151.219707 C32.5287238,158.020669 32.5287238,165.117003 36.6937689,173.394829 L37.8827202,216.26821 C37.8827202,216.26821 39.3689094,236.375722 37.8827202,240.514635 C36.396531,244.653548 38.4771959,264.465687 38.4771959,264.465687 L38.187389,264.465687 L38.187389,275.409254 L60.4802263,276 C60.4802263,276 65.6818884,273.548405 66.6144721,271.69494 L77.8203383,275.117573 C77.8203383,275.117573 90.1482774,273.005657 82.9365445,270.088849 C77.5528243,267.910474 76.215254,264.805366 75.877146,263.365423 L93.4996339,213.015415 C93.4996339,213.015415 90.2263023,170.142035 78.3256427,155.354928 L77.118114,146.637734 L77.2853102,146.637734 L79.8155473,95.7302104 L80.0236138,95.7597477 L79.9641662,95.7782085 C88.3722814,97.0409278 95.1270111,96.3726465 99.6041559,95.4754513 C101.547259,95.1310326 103.452265,94.6005817 105.292545,93.891514 L105.626937,93.7585961 L105.667808,93.7585961 L105.697531,93.7585961 C107.078161,93.1972235 108.379557,92.4600072 109.569054,91.5654522 L117,80.2711299 L105.693816,72.5175905 L101.852017,77.9819897 Z M55.1373763,251.144368 L60.7923261,211.819155 L60.7923261,191.726412 L70.9095588,212.720043 L60.0232232,258.214858 L59.4510404,258.056095 L56.9393807,267.016971 C56.1188856,266.342938 55.496384,265.461598 55.1373763,264.465687 L55.1373763,251.144368 Z" id="Shape" fill="url(#linearGradient-7)"></path>
                <path d="M31.5144895,85 C31.5144895,85 14.3237669,88.9292409 17.3594378,113 C17.3594378,113 23.5791394,110.863498 25.7512798,110.619538 C27.8131013,110.386667 34.0442152,111.037228 34.0442152,111.037228 L37,100.155116 L31.5144895,85 Z" id="Path" fill="#535461"></path>
                <path d="M115.500833,57.6588294 L115.500833,64.575209 L107,76.6426997 L115.500833,82 C115.500833,82 119.278981,67.892322 121.313656,66.2319568 C121.313656,66.2319568 124.513135,64.0181366 126.256608,60.9759424 C128.000082,57.9337483 127.130211,47.4217195 118.696579,56.8268381 L118.696579,57.9337483 L115.500833,57.6588294 Z" id="Path" fill="#FDA57D"></path>
                <path d="M48.1377561,73.0500938 L51.5620802,66.3400012 C51.7673314,65.938531 52.1773117,65.6764381 52.6350351,65.6540806 L65.6626859,65.0017105 C66.0929703,64.9796193 66.5053707,65.1726507 66.7582046,65.5144875 C67.0110385,65.8563244 67.0698623,66.3003983 66.9144666,66.694145 L63.5548242,75.204779 C63.3502728,75.7219375 62.8212493,76.0441779 62.2573858,75.9950788 L49.1612485,74.8543631 C48.7404388,74.8186861 48.3652217,74.5804895 48.16003,74.2187661 C47.9548383,73.8570428 47.9464909,73.4190706 48.1377561,73.0500938 Z" id="Path" fill="#FDA57D"></path>
                <polygon id="Path" fill="#EDEEF9" points="50.1403215 71 48 77 70 76.2473623 61.5492297 71.4044549"></polygon>
                <polygon id="Path" fill="#EDEEF9" points="105 77.3784393 106.158692 76 116 81.5173658 116 84"></polygon>
                <path d="M40.7043988,139 C40.7043988,139 42.318186,145.434119 39.227248,151.93476 C36.1363099,158.435401 36.1215384,165.216911 40.0729168,173.129288 L41.2029372,214.106607 C41.2029372,214.106607 42.6136162,233.323965 41.2029372,237.278306 C39.7922582,241.232647 41.7679474,260.169135 41.7679474,260.169135 L57.5808468,260.169135 L57.5808468,247.456114 L62.9465971,209.871397 L62.9465971,190.65404 L72.5480774,210.7177 L61.5248394,257.064793 L75.9270598,263 L94,211.002265 C94,211.002265 90.8942904,170.024946 79.5977796,155.896492 L77.4891468,140.478258 L40.7043988,139 Z" id="Path" fill="#1F4E7A"></path>
                <path d="M40,271.439302 L40,261 L56.6091992,261 C56.6091992,261 57.7751582,265.231053 65.3500809,266.075788 C72.9250036,266.920523 61.8522041,272 61.8522041,272 L40,271.439302 Z" id="Path" fill="#333333"></path>
                <path d="M59,263.50839 L61.8789295,253 L77.809765,257.506349 C77.809765,257.506349 77.7604552,262.082086 84.7927812,264.988662 C91.8251071,267.895238 79.8049125,270 79.8049125,270 L59,263.50839 Z" id="Path" fill="#333333"></path>
                <path d="M76.0479405,142.374105 L40,141 C40.4453941,143.039099 40.5370995,145.133513 40.2714999,147.200647 C41.922219,150.883247 45.458957,149.87328 45.458957,149.87328 L77,148.95263 L76.0479405,142.374105 Z" id="Path" fill="#000000" opacity="0.1"></path>
                <path d="M47.4603528,74 L31,84.9977093 L34.2623788,102.594044 C34.2623788,102.594044 42.494411,118.500398 39.9372107,134.406751 C37.3800105,150.313105 45.6120426,147.864282 45.6120426,147.864282 L78.0985067,146.885486 L80.5109597,98.6238711 C80.5109597,98.6238711 100.10379,101.369633 108.903677,94.6463663 L116,83.9419292 L105.214479,76.610123 L101.525282,81.8083736 C101.525282,81.8083736 89.9751987,79.3742139 83.6211685,76.8447408 C80.6613242,75.6520191 77.5112955,74.9855655 74.3165226,74.8761508 L47.4603528,74 Z" id="Path" fill="#535461"></path>
                <path d="M48.1264222,153 C48.1264222,153 46.2447876,162.782902 57,179" id="Path" fill="#000000" opacity="0.1"></path>
                <path d="M80,100.35713 C80,100.35713 93.8369818,96 99.8920752,96 C105.947169,96 104.93673,98.4724841 104.93673,98.4724841 C104.93673,98.4724841 95.2810047,102.537476 80,100.35713 Z" id="Path" fill="#000000" opacity="0.1"></path>
                <path d="M65.4755449,66.0020139 L60.3933481,66.6857384 C60.2332241,66.7097287 60.0870239,66.9416353 60,67.3014903 C61.1173871,69.6165574 62.5167317,71 64.0344288,71 C64.5768496,70.9921823 65.1082086,70.8227189 65.5764926,70.5081982 L65.9663598,67.8052873 C66.0951552,66.9136465 65.8375644,65.9500348 65.4755449,66.0020139 Z" id="Path" fill="#000000" opacity="0.1"></path>
                <circle id="Oval" fill="#FDA57D" cx="61" cy="53" r="16"></circle>
                <path d="M75.6709679,36.4970937 L75.6709679,43.5057841 L74.8628398,44.2828509 C74.1645725,44.9537923 73.8409161,45.9527931 74.004641,46.9317756 C74.1683659,47.910758 74.7967953,48.7341271 75.6709679,49.1149997 L75.6709679,49.1149997 C75.6709679,49.1149997 74.3348628,60.3296588 72.6683231,64.5356274 L75.5057506,62.9588607 L75.9870357,69.318738 C76.0781952,70.5248499 75.6856074,71.7161428 74.9040487,72.605021 C74.12249,73.4938992 73.0229848,74 71.8709701,74 L71.8709701,74 C70.4318919,74 69.0966634,73.2129242 68.3465824,71.9230693 C67.5965013,70.6332144 67.5397106,69.0263229 68.1966811,67.6816166 C68.8755087,66.2934583 70.0787216,64.8336288 70.6677572,62.7777966 C72.8227654,55.2334582 68.512749,56.6442495 67.4963034,58.0474964 C66.4798579,59.4507433 67.6615207,63.1286083 67.6615207,63.1286083 C67.6615207,63.1286083 70.8329745,69.2621555 54.1460277,67.8589085 C54.1460277,67.8589085 43.1339358,65.4069985 44.3012319,49.8090788 C44.4197573,48.2474008 41.9666397,44.1998632 49.3080343,42.098765 L49.3080343,42.098765 C49.7543871,37.613367 52.8515017,33.9143087 57.030147,32.8758112 C62.5397846,31.5216025 70.1469635,31.087803 75.6709679,36.4970937 Z" id="Path" fill="#000000" opacity="0.1"></path>
                <path d="M75.6781512,36.4994488 L75.6781512,43.5076991 L74.8628398,44.2847171 C74.1645725,44.9556163 73.8409161,45.9545545 74.004641,46.9334754 C74.1683659,47.9123963 74.7967953,48.7357138 75.6709679,49.1165624 C75.6709679,49.1165624 74.3348628,60.3305173 72.6683231,64.5362218 L75.5057506,62.9595541 L75.9870357,69.319032 C76.0781952,70.5250681 75.6856074,71.7162862 74.9040487,72.6051086 C74.12249,73.4939309 73.0229848,74 71.8709701,74 C70.4318919,74 69.0966634,73.2129736 68.3465824,71.9231997 C67.5965013,70.6334258 67.5397106,69.0266352 68.1966811,67.6820134 C68.8755087,66.2939423 70.0787216,64.8342044 70.6677572,62.7785013 C72.8227654,55.2346367 68.512749,56.6453394 67.4963034,58.0484982 C66.4798579,59.451657 67.6615207,63.129291 67.6615207,63.129291 C67.6615207,63.129291 70.8329745,69.262453 54.1460277,67.8592942 C54.1460277,67.8592942 43.1339358,65.4075382 44.3012319,49.810598 C44.4197573,48.249018 41.9666397,44.2017346 49.3080343,42.1007683 C49.7543871,37.615652 52.8515017,33.916826 57.030147,32.8783938 C62.5361929,31.5204981 70.1433718,31.0867259 75.6781512,36.4994488 Z" id="Path" fill="#0D273F"></path>
            </g>
        </g>
    </g>
</svg>